<svg width="50" height="50" viewBox="0 0 50 50" fill="none" xmlns="http://www.w3.org/2000/svg">
<path d="M10.1766 47.0184C10.2206 48.6225 8.95558 49.9401 7.35107 49.9614V49.9614C5.74657 49.9827 4.4102 48.6996 4.36621 47.0956L4.29688 44.5679L10.1073 44.4907L10.1766 47.0184Z" fill="black"/>
<path d="M46.0141 47.0184C46.0581 48.6225 44.793 49.9401 43.1885 49.9614V49.9614C41.584 49.9827 40.2477 48.6996 40.2037 47.0956L40.1343 44.5679L45.9448 44.4907L46.0141 47.0184Z" fill="black"/>
<rect x="2.34375" width="45.3125" height="44.4907" rx="10" fill="black"/>
<path d="M5.85938 12.3594C5.85938 6.83653 10.3365 2.35938 15.8594 2.35938H34.1406C39.6635 2.35938 44.1406 6.83653 44.1406 12.3594V24.6047H5.85938V12.3594Z" fill="white"/>
<path d="M10.5469 31.1002C10.5469 29.3743 11.946 27.9752 13.6719 27.9752V27.9752V38.4238H10.5469V31.1002Z" fill="white"/>
<path d="M14.4531 27.9752H17.9688V38.4238H14.4531V27.9752Z" fill="white"/>
<path d="M18.75 27.9752H22.2656V38.4238H18.75V27.9752Z" fill="white"/>
<path d="M23.0469 27.9752H26.5625V38.4238H23.0469V27.9752Z" fill="white"/>
<path d="M27.3438 27.9752H30.8594V38.4238H27.3438V27.9752Z" fill="white"/>
<path d="M31.6406 27.9752H35.1562V38.4238H31.6406V27.9752Z" fill="white"/>
<path d="M35.9375 27.9752V27.9752C37.6634 27.9752 39.0625 29.3743 39.0625 31.1002V38.4238H35.9375V27.9752Z" fill="white"/>
<rect y="39.4349" width="50" height="5.05576" rx="2.52788" fill="black"/>
<rect y="2.35938" width="50" height="5.05576" rx="2.52788" fill="black"/>
<rect y="22.2454" width="50" height="2.35935" rx="1.17968" fill="black"/>
</svg>
